<svg xmlns="http://www.w3.org/2000/svg" width="60" height="60" viewBox="0 0 60 60"><g transform="translate(-944 -53)"><g transform="translate(944 53)"><g fill="none" stroke="#ff8f56" stroke-width="3"><rect width="60" height="60" stroke="none"/><rect x="1.5" y="1.5" width="57" height="57" fill="none"/></g></g><path d="M12.276,32.584a.409.409,0,0,0,.4.416h5.745a.409.409,0,0,0,.4-.416V16.37h4.165a.408.408,0,0,0,.4-.382l.4-4.884a.424.424,0,0,0-.1-.316.4.4,0,0,0-.3-.135H18.827V7.188a1.449,1.449,0,0,1,1.426-1.472h3.21a.409.409,0,0,0,.4-.416V.416a.409.409,0,0,0-.4-.416H18.04a5.855,5.855,0,0,0-5.763,5.943v4.711H9.4a.409.409,0,0,0-.4.415v4.886a.409.409,0,0,0,.4.416h2.873Z" transform="translate(957.567 66.5)" fill="#ff8f56" fill-rule="evenodd"/></g></svg>